<svg width="119" height="119" viewBox="0 0 119 119" fill="none" xmlns="http://www.w3.org/2000/svg">
<circle cx="59.5" cy="59.5" r="59.5" fill="#9649E9"/>
<path d="M79.9354 72.9575L60.297 84.3616V75.4768L72.5336 68.5642L79.9354 72.9575ZM81.2818 71.7075V47.8493L74.0925 52.1129V67.4439L81.2818 71.7075ZM38.9314 72.9575L58.5698 84.3616V75.4768L46.3332 68.5642L38.9314 72.9575ZM37.585 71.7075V47.8493L44.7743 52.1129V67.4439L37.585 71.7075ZM38.4265 46.3048L58.5698 34.6079V43.2L45.5716 50.5421L38.4265 46.3048ZM80.4403 46.3048L60.297 34.6079V43.2L73.2952 50.5421L80.4403 46.3048ZM58.5698 73.4607L46.5015 66.6393V53.1349L58.5698 60.2929V73.4607ZM60.297 73.4607L72.3653 66.6393V53.1349L60.297 60.2929V73.4607ZM47.3158 51.5747L59.4368 44.7357L71.5578 51.5747L59.4368 58.7607L47.3158 51.5747Z" fill="#FAF9F9"/>
</svg>
