<svg width="119" height="119" viewBox="0 0 119 119" fill="none" xmlns="http://www.w3.org/2000/svg">
<circle cx="59.5" cy="59.5" r="59.5" fill="#9649E9"/>
<path d="M79.0499 46.3246C79.0499 41.2569 70.4876 36.9746 60.3499 36.9746C50.2122 36.9746 41.6499 41.2569 41.6499 46.3246V50.9996C41.6499 56.0673 50.2122 60.3496 60.3499 60.3496C70.4876 60.3496 79.0499 56.0673 79.0499 50.9996V46.3246ZM60.3499 76.7121C50.2122 76.7121 41.6499 72.4298 41.6499 67.3621V74.3746C41.6499 79.4423 50.2122 83.7246 60.3499 83.7246C70.4876 83.7246 79.0499 79.4423 79.0499 74.3746V67.3621C79.0499 72.4298 70.4876 76.7121 60.3499 76.7121Z" fill="#FAF9F9"/>
<path d="M79.0499 55.6748C79.0499 60.7425 70.4876 65.0248 60.3499 65.0248C50.2122 65.0248 41.6499 60.7425 41.6499 55.6748V62.6873C41.6499 67.755 50.2122 72.0373 60.3499 72.0373C70.4876 72.0373 79.0499 67.755 79.0499 62.6873V55.6748Z" fill="#FAF9F9"/>
</svg>
