<svg width="45" height="45" viewBox="0 0 45 45" fill="none" xmlns="http://www.w3.org/2000/svg">
<path d="M22.6767 0.532715C10.4936 0.532715 0.615234 10.4111 0.615234 22.5942C0.615234 34.7772 10.4936 44.6556 22.6767 44.6556C34.8597 44.6556 44.7381 34.7772 44.7381 22.5942C44.7381 10.4111 34.8597 0.532715 22.6767 0.532715ZM31.3683 29.3751L29.9599 31.2956C29.9293 31.3374 29.8907 31.3728 29.8463 31.3997C29.802 31.4265 29.7528 31.4443 29.7015 31.4521C29.6503 31.4599 29.598 31.4575 29.5477 31.445C29.4974 31.4325 29.45 31.4102 29.4084 31.3793L21.2634 25.4405C21.2126 25.404 21.1714 25.3559 21.1431 25.3002C21.1148 25.2445 21.1003 25.1829 21.1009 25.1204V11.5634C21.1009 11.3468 21.2781 11.1695 21.4948 11.1695H23.8635C24.0801 11.1695 24.2574 11.3468 24.2574 11.5634V23.7514L31.2797 28.8285C31.4569 28.9516 31.4963 29.1978 31.3683 29.3751Z" fill="#960ACA"/>
</svg>
