<svg width="52" height="52" viewBox="0 0 52 52" fill="none" xmlns="http://www.w3.org/2000/svg">
<path d="M35.1431 23.8136C35.1431 28.8154 31.0883 32.8702 26.0865 32.8702C21.0848 32.8702 17.03 28.8154 17.03 23.8136C17.03 22.4042 17.3613 21.0755 17.9351 19.8865H7.93262V41.0654C7.93262 43.0068 9.52104 44.5953 11.4624 44.5953H40.7096C42.651 44.5953 44.2394 43.0068 44.2394 41.0654V19.8865H34.2374C34.8323 21.1102 35.1419 22.4529 35.1431 23.8136ZM40.7096 7.78418H11.4624C9.52104 7.78418 7.93262 9.3726 7.93262 11.314V18.3737H18.8574C20.5104 16.1806 23.1285 14.7571 26.086 14.7571C29.0435 14.7571 31.6616 16.1806 33.3146 18.3737H44.2394V11.314C44.2394 9.3726 42.651 7.78418 40.7096 7.78418ZM10.8351 16.7177H9.52104V11.6272C9.521 11.2047 9.64574 10.7916 9.87962 10.4397C10.1135 10.0879 10.4461 9.81295 10.8357 9.64944V16.7177H10.8351ZM12.9883 16.7177H11.7433V9.48253H12.9883V16.7177ZM15.141 16.7177H13.896V9.48253H15.141V16.7177ZM17.2922 11.6272V16.7177H16.0487V9.48253H17.2922V11.6272ZM42.3994 14.5731C42.3995 14.8546 42.3441 15.1334 42.2364 15.3936C42.1287 15.6538 41.9708 15.8902 41.7717 16.0893C41.5727 16.2885 41.3364 16.4465 41.0763 16.5543C40.8161 16.6621 40.5373 16.7176 40.2558 16.7177H36.7718C36.4902 16.7177 36.2114 16.6622 35.9512 16.5544C35.691 16.4466 35.4546 16.2887 35.2555 16.0895C35.0564 15.8903 34.8985 15.6539 34.7908 15.3937C34.6831 15.1335 34.6276 14.8547 34.6277 14.5731V11.6272C34.6276 11.3455 34.6831 11.0667 34.7908 10.8065C34.8985 10.5463 35.0564 10.3099 35.2555 10.1107C35.4546 9.91156 35.691 9.75358 35.9512 9.64579C36.2114 9.53801 36.4902 9.48253 36.7718 9.48253H40.2558C40.5374 9.48253 40.8162 9.53801 41.0763 9.6458C41.3365 9.75359 41.5728 9.91158 41.7719 10.1107C41.971 10.3099 42.1288 10.5463 42.2365 10.8065C42.3442 11.0667 42.3995 11.3456 42.3994 11.6272V14.5731Z" fill="#960ACA"/>
<path d="M26.0858 31.8113C30.491 31.8113 34.0622 28.2386 34.0622 23.8343C34.0622 19.4296 30.4915 15.8569 26.0858 15.8569C21.6796 15.8569 18.1084 19.4296 18.1084 23.8343C18.1084 28.2381 21.6796 31.8113 26.0858 31.8113ZM26.0853 17.4786C29.595 17.4786 32.441 20.3242 32.441 23.8343C32.441 27.344 29.5955 30.1901 26.0853 30.1901C22.5751 30.1901 19.7296 27.3445 19.7296 23.8343C19.7301 20.3237 22.5757 17.4786 26.0853 17.4786Z" fill="#960ACA"/>
</svg>
