<svg width="38" height="38" viewBox="0 0 38 38" fill="none" xmlns="http://www.w3.org/2000/svg">
<path d="M28.1431 16.8136C28.1431 21.8154 24.0883 25.8702 19.0865 25.8702C14.0848 25.8702 10.03 21.8154 10.03 16.8136C10.03 15.4042 10.3613 14.0755 10.9351 12.8865H0.932617V34.0654C0.932617 36.0068 2.52104 37.5953 4.46245 37.5953H33.7096C35.651 37.5953 37.2394 36.0068 37.2394 34.0654V12.8865H27.2374C27.8323 14.1102 28.1419 15.4529 28.1431 16.8136ZM33.7096 0.78418H4.46245C2.52104 0.78418 0.932617 2.3726 0.932617 4.31401V11.3737H11.8574C13.5104 9.18064 16.1285 7.75711 19.086 7.75711C22.0435 7.75711 24.6616 9.18064 26.3146 11.3737H37.2394V4.31401C37.2394 2.3726 35.651 0.78418 33.7096 0.78418ZM3.83515 9.71768H2.52104V4.62716C2.521 4.20467 2.64574 3.79158 2.87962 3.43973C3.1135 3.08789 3.44609 2.81295 3.83565 2.64944V9.71768H3.83515ZM5.98834 9.71768H4.74332V2.48253H5.98834V9.71768ZM8.14103 9.71768H6.89601V2.48253H8.14103V9.71768ZM10.2922 4.62716V9.71768H9.0487V2.48253H10.2922V4.62716ZM35.3994 7.57305C35.3995 7.85462 35.3441 8.13345 35.2364 8.39361C35.1287 8.65377 34.9708 8.89017 34.7717 9.08932C34.5727 9.28847 34.3364 9.44646 34.0763 9.55427C33.8161 9.66208 33.5373 9.71761 33.2558 9.71768H29.7718C29.4902 9.71768 29.2114 9.6622 28.9512 9.55442C28.691 9.44663 28.4546 9.28865 28.2555 9.0895C28.0564 8.89035 27.8985 8.65392 27.7908 8.39373C27.6831 8.13353 27.6276 7.85466 27.6277 7.57305V4.62716C27.6276 4.34554 27.6831 4.06668 27.7908 3.80648C27.8985 3.54629 28.0564 3.30986 28.2555 3.11071C28.4546 2.91156 28.691 2.75358 28.9512 2.64579C29.2114 2.53801 29.4902 2.48253 29.7718 2.48253H33.2558C33.5374 2.48253 33.8162 2.53801 34.0763 2.6458C34.3365 2.75359 34.5728 2.91158 34.7719 3.11074C34.971 3.3099 35.1288 3.54633 35.2365 3.80652C35.3442 4.06671 35.3995 4.34557 35.3994 4.62716V7.57305Z" fill="#960ACA"/>
<path d="M19.0858 24.8113C23.491 24.8113 27.0622 21.2386 27.0622 16.8343C27.0622 12.4296 23.4915 8.85693 19.0858 8.85693C14.6796 8.85693 11.1084 12.4296 11.1084 16.8343C11.1084 21.2381 14.6796 24.8113 19.0858 24.8113ZM19.0853 10.4786C22.595 10.4786 25.441 13.3242 25.441 16.8343C25.441 20.344 22.5955 23.1901 19.0853 23.1901C15.5751 23.1901 12.7296 20.3445 12.7296 16.8343C12.7301 13.3237 15.5757 10.4786 19.0853 10.4786Z" fill="#960ACA"/>
</svg>
