<svg width="49" height="49" viewBox="0 0 49 49" fill="none" xmlns="http://www.w3.org/2000/svg">
<path d="M32.7755 34.2398L36.8936 30.1217C37.4483 29.5739 38.1501 29.1989 38.9137 29.0423C39.6774 28.8856 40.4701 28.9541 41.1956 29.2392L46.2146 31.2431C46.9478 31.5408 47.5765 32.0487 48.0214 32.7031C48.4664 33.3574 48.7077 34.1288 48.7149 34.9201V44.1123C48.7106 44.6506 48.5975 45.1824 48.3823 45.6758C48.167 46.1692 47.8542 46.6139 47.4626 46.9832C47.071 47.3525 46.6087 47.6387 46.1035 47.8246C45.5984 48.0105 45.0608 48.0923 44.5232 48.065C9.35361 45.8772 2.25718 16.0943 0.915109 4.69588C0.852809 4.13614 0.90973 3.56955 1.08213 3.03339C1.25453 2.49723 1.53849 2.00364 1.91535 1.5851C2.29221 1.16657 2.75341 0.832567 3.26862 0.605075C3.78383 0.377583 4.34136 0.261756 4.90455 0.265212H13.7843C14.5767 0.267557 15.3502 0.506909 16.0055 0.95248C16.6607 1.39805 17.1677 2.02946 17.4612 2.76551L19.4651 7.78449C19.7597 8.50712 19.8349 9.30055 19.6812 10.0657C19.5275 10.8308 19.1518 11.5336 18.601 12.0865L14.4829 16.2046C14.4829 16.2046 16.8545 32.2543 32.7755 34.2398Z" fill="#960ACA"/>
</svg>
