<svg width="81" height="119" viewBox="0 0 81 119" fill="none" xmlns="http://www.w3.org/2000/svg">
<path d="M64.7121 117.539C64.9421 118.335 65.7738 118.793 66.5696 118.563L79.5385 114.814C80.3344 114.584 80.793 113.752 80.5629 112.956C80.3328 112.16 79.5012 111.702 78.7053 111.932L67.1774 115.265L63.8446 103.737C63.6145 102.941 62.7829 102.482 61.987 102.712C61.1912 102.942 60.7326 103.774 60.9626 104.57L64.7121 117.539ZM6.63976 0.715602C-2.09475 34.4834 -0.134268 53.9956 7.62 65.3146C15.4111 76.6872 28.6915 79.2678 41.0001 80.1957C44.0978 80.4293 47.1718 80.5596 50.1068 80.6891C53.0527 80.8191 55.8533 80.9482 58.4531 81.1779C63.7222 81.6435 67.8533 82.5062 70.5136 84.3659C71.801 85.2658 72.7377 86.3969 73.3024 87.8644C73.8742 89.3504 74.0999 91.275 73.8013 93.8004C73.199 98.894 70.5031 106.128 64.8395 116.398L67.4666 117.846C73.1769 107.492 76.1079 99.8411 76.7805 94.1527C77.1194 91.287 76.8946 88.8461 76.1023 86.787C75.3028 84.7095 73.9619 83.116 72.2325 81.9071C68.8591 79.549 63.9999 78.6563 58.7172 78.1895C56.0411 77.9531 53.1755 77.8217 50.2391 77.6921C47.2918 77.562 44.2676 77.4336 41.2256 77.2042C28.9751 76.2807 17.0314 73.7442 10.0949 63.6191C3.12169 53.4402 0.851278 35.0738 9.54417 1.46687L6.63976 0.715602Z" fill="#960ACA"/>
</svg>
