<svg width="61" height="61" viewBox="0 0 61 61" fill="none" xmlns="http://www.w3.org/2000/svg">
<path d="M30.4882 2.85938C15.2263 2.85938 2.84756 15.2381 2.84756 30.5C2.84756 30.9051 2.85947 31.3221 2.87139 31.7271C1.26299 31.9297 0.0239258 33.2998 0.0239258 34.9678C0.0239258 36.7787 1.48936 38.2561 3.31221 38.2561H3.95557C7.31533 49.7412 17.9188 58.1287 30.4882 58.1287C45.7501 58.1287 58.1288 45.7619 58.1288 30.4881C58.1169 15.2262 45.7501 2.85938 30.4882 2.85938Z" fill="#FFD469"/>
<path d="M44.249 20.9092C45.9289 20.9092 47.2871 22.2674 47.2871 23.9473V30.7502C47.2871 32.4301 45.9289 30.774 44.249 30.774C42.5691 30.774 41.2109 32.4301 41.2109 30.7502V23.9473C41.2109 22.2674 42.5691 20.9092 44.249 20.9092Z" fill="#2B3B47"/>
<path d="M41.4846 32.4301C41.1391 32.4301 40.7936 32.2394 40.6268 31.9059C40.3885 31.4293 40.5911 30.8574 41.0557 30.6311C43.0811 29.6303 45.3924 29.5945 47.4059 30.5477C47.8825 30.774 48.085 31.3459 47.8587 31.8225C47.6323 32.299 47.0604 32.5016 46.5839 32.2752C45.1065 31.5723 43.4028 31.5961 41.9016 32.3467C41.7706 32.3943 41.6276 32.4301 41.4846 32.4301Z" fill="#F2A74E"/>
<path d="M16.7393 20.9092C18.4191 20.9092 19.7773 22.2674 19.7773 23.9473V30.7502C19.7773 32.4301 18.4191 30.774 16.7393 30.774C15.0594 30.774 13.7012 32.4301 13.7012 30.7502V23.9473C13.7012 22.2674 15.0594 20.9092 16.7393 20.9092Z" fill="#2B3B47"/>
<path d="M13.9754 32.4301C13.6299 32.4301 13.2843 32.2394 13.1175 31.9059C12.8793 31.4293 13.0818 30.8574 13.5465 30.6311C15.5718 29.6303 17.8832 29.5945 19.8966 30.5477C20.3732 30.774 20.5757 31.3459 20.3494 31.8225C20.123 32.299 19.5511 32.5016 19.0746 32.2752C17.5972 31.5723 15.8935 31.5961 14.3924 32.3467C14.2613 32.3943 14.1183 32.4301 13.9754 32.4301Z" fill="#F2A74E"/>
<path d="M58.093 31.715C58.1049 31.31 58.1168 30.9049 58.1168 30.4879C58.1168 23.1012 55.2217 16.3936 50.4918 11.4492C53.1605 15.774 54.7094 20.8732 54.7094 26.3299C54.7094 42.0088 41.9971 54.7211 26.3182 54.7211C20.8615 54.7211 15.7623 53.1723 11.4375 50.5035C16.3938 55.2215 23.1014 58.1166 30.4881 58.1166C43.0574 58.1166 53.6729 49.7291 57.0207 38.2439H57.6641C59.475 38.2439 60.9523 36.7785 60.9523 34.9557C60.9404 33.2996 59.7014 31.9295 58.093 31.715Z" fill="#FFB636"/>
<path d="M30.2496 45.5472C28.0931 45.5472 26.0558 44.6775 24.6738 43.1525C24.1972 42.6283 24.2449 41.83 24.7691 41.3535C25.2933 40.8769 26.0916 40.9246 26.5681 41.4488C27.4736 42.4376 28.808 43.0095 30.2615 43.0095H30.2972C31.7507 42.9976 33.0851 42.4257 33.9787 41.413C34.4433 40.8888 35.2416 40.8412 35.7777 41.3058C36.3019 41.7705 36.3496 42.5687 35.8849 43.1048C34.5148 44.6537 32.4894 45.5472 30.3211 45.5591C30.2734 45.5472 30.2615 45.5472 30.2496 45.5472Z" fill="#2B3B47"/>
</svg>
