<svg width="36" height="34" viewBox="0 0 36 34" fill="none" xmlns="http://www.w3.org/2000/svg">
<path d="M2.83335 33.3877C2.15002 33.6439 1.54527 33.5084 1.0191 32.9811C0.491798 32.4549 0.35627 31.8502 0.61252 31.1669L6.1219 15.7492C6.52051 14.5533 7.33196 13.813 8.55627 13.5283C9.78058 13.2436 10.8483 13.5568 11.7594 14.4679L19.5323 22.2408C20.4434 23.1519 20.7566 24.2196 20.4719 25.4439C20.1872 26.6683 19.4469 27.4797 18.2511 27.8783L2.83335 33.3877ZM5.05419 28.946L17.0979 24.6752L9.32502 16.9023L5.05419 28.946ZM19.9594 17.5429C19.7031 17.2867 19.575 16.9877 19.575 16.646C19.575 16.3044 19.7031 16.0054 19.9594 15.7492L28.6292 7.07936C29.5403 6.16825 30.6365 5.7127 31.9177 5.7127C33.199 5.7127 34.2952 6.16825 35.2063 7.07936L35.3771 7.2502C35.6049 7.47797 35.7188 7.7627 35.7188 8.10436C35.7188 8.44603 35.5906 8.74499 35.3344 9.00124C35.0781 9.25749 34.7792 9.38561 34.4375 9.38561C34.0959 9.38561 33.7969 9.25749 33.5406 9.00124L33.4125 8.87311C33.0139 8.4745 32.5156 8.2752 31.9177 8.2752C31.3198 8.2752 30.8215 8.4745 30.4229 8.87311L21.7104 17.5856C21.4827 17.8134 21.1979 17.9273 20.8563 17.9273C20.5146 17.9273 20.2156 17.7992 19.9594 17.5429ZM13.1261 10.7096C12.8698 10.4533 12.7417 10.1544 12.7417 9.8127C12.7417 9.47103 12.8698 9.17207 13.1261 8.91582L13.2542 8.7877C13.6528 8.38908 13.8521 7.90506 13.8521 7.33561C13.8521 6.76617 13.6528 6.28214 13.2542 5.88353L12.9979 5.62728C12.7702 5.3995 12.6563 5.11478 12.6563 4.77311C12.6563 4.43145 12.7844 4.13249 13.0406 3.87624C13.2969 3.61999 13.5959 3.49186 13.9375 3.49186C14.2792 3.49186 14.5781 3.61999 14.8344 3.87624L15.0479 4.08978C15.959 5.00089 16.4146 6.08283 16.4146 7.33561C16.4146 8.58839 15.959 9.67033 15.0479 10.5814L14.8771 10.7523C14.6493 10.9801 14.3646 11.0939 14.0229 11.0939C13.6813 11.0939 13.3823 10.9658 13.1261 10.7096ZM16.5427 14.1262C16.2865 13.87 16.1584 13.571 16.1584 13.2294C16.1584 12.8877 16.2865 12.5887 16.5427 12.3325L21.7959 7.07936C22.1945 6.68075 22.3938 6.18249 22.3938 5.58457C22.3938 4.98665 22.1945 4.48839 21.7959 4.08978L19.9167 2.21061C19.6889 1.98283 19.575 1.69811 19.575 1.35645C19.575 1.01478 19.7031 0.715821 19.9594 0.459571C20.2156 0.203321 20.5146 0.0751953 20.8563 0.0751953C21.1979 0.0751953 21.4969 0.203321 21.7531 0.459571L23.5896 2.29603C24.5007 3.20714 24.9563 4.30332 24.9563 5.58457C24.9563 6.86582 24.5007 7.962 23.5896 8.87311L18.2938 14.1689C18.066 14.3967 17.7813 14.5106 17.4396 14.5106C17.0979 14.5106 16.799 14.3825 16.5427 14.1262ZM23.3761 20.9596C23.1198 20.7033 22.9917 20.4044 22.9917 20.0627C22.9917 19.721 23.1198 19.4221 23.3761 19.1658L25.2125 17.3294C26.1236 16.4183 27.2198 15.9627 28.5011 15.9627C29.7823 15.9627 30.8785 16.4183 31.7896 17.3294L33.6688 19.2085C33.8965 19.4363 34.0104 19.721 34.0104 20.0627C34.0104 20.4044 33.8823 20.7033 33.6261 20.9596C33.3698 21.2158 33.0709 21.3439 32.7292 21.3439C32.3875 21.3439 32.0886 21.2158 31.8323 20.9596L29.9959 19.1231C29.5972 18.7245 29.099 18.5252 28.5011 18.5252C27.9031 18.5252 27.4049 18.7245 27.0063 19.1231L25.1271 21.0023C24.8993 21.2301 24.6146 21.3439 24.2729 21.3439C23.9313 21.3439 23.6323 21.2158 23.3761 20.9596Z" fill="white"/>
</svg>
